<?xml version="1.0" encoding="UTF-8" standalone="no"?>
<!-- Created with Inkscape (http://www.inkscape.org/) -->

<svg
   xmlns:dc="http://purl.org/dc/elements/1.1/"
   xmlns:cc="http://creativecommons.org/ns#"
   xmlns:rdf="http://www.w3.org/1999/02/22-rdf-syntax-ns#"
   xmlns:svg="http://www.w3.org/2000/svg"
   xmlns="http://www.w3.org/2000/svg"
   xmlns:sodipodi="http://sodipodi.sourceforge.net/DTD/sodipodi-0.dtd"
   xmlns:inkscape="http://www.inkscape.org/namespaces/inkscape"
   width="611.85059"
   height="262.28787"
   id="svg2"
   version="1.1"
   inkscape:version="0.48.5 r10040"
   sodipodi:docname="geoeuskadi.pdf">
  <defs
     id="defs4" />
  <sodipodi:namedview
     id="base"
     pagecolor="#ffffff"
     bordercolor="#666666"
     borderopacity="1.0"
     inkscape:pageopacity="0.0"
     inkscape:pageshadow="2"
     inkscape:zoom="1.0748023"
     inkscape:cx="326.63816"
     inkscape:cy="-49.235096"
     inkscape:document-units="px"
     inkscape:current-layer="layer1"
     showgrid="false"
     inkscape:window-width="1920"
     inkscape:window-height="1028"
     inkscape:window-x="-8"
     inkscape:window-y="-8"
     inkscape:window-maximized="1"
     fit-margin-top="0"
     fit-margin-left="0"
     fit-margin-right="0"
     fit-margin-bottom="0">
    <inkscape:grid
       type="xygrid"
       id="grid3766"
       empspacing="5"
       visible="true"
       enabled="true"
       snapvisiblegridlinesonly="true"
       originx="-57.685036px"
       originy="-522.97285px" />
  </sodipodi:namedview>
  <metadata
     id="metadata7">
    <rdf:RDF>
      <cc:Work
         rdf:about="">
        <dc:format>image/svg+xml</dc:format>
        <dc:type
           rdf:resource="http://purl.org/dc/dcmitype/StillImage" />
        <dc:title></dc:title>
      </cc:Work>
    </rdf:RDF>
  </metadata>
  <g
     inkscape:label="Capa 1"
     inkscape:groupmode="layer"
     id="layer1"
     transform="translate(-57.685036,-267.10147)">
    <g
       id="g4022">
      <rect
         y="267.10147"
         x="57.685036"
         height="191.66316"
         width="206.54961"
         id="rect3858"
         style="fill:#e1e1e1;fill-opacity:1;stroke:none" />
      <path
         d="m 336.89373,433.85098 0,-5.67985 c -2.2818,1.89329 -5.4246,3.5131 -9.4284,4.85943 -4.00388,1.34633 -7.68483,2.0195 -11.04285,2.0195 -16.05844,0 -24.08765,-8.33043 -24.08764,-24.99132 l 0,-43.86102 16.14452,0 0,42.66195 c -2e-5,8.66703 3.9823,13.00054 11.94696,13.00053 3.65939,10e-6 7.06049,-0.92559 10.20334,-2.77682 3.14275,-1.85119 5.23078,-3.9969 6.26407,-6.43715 l 0,-46.44851 16.14454,0 0,67.65326 z"
         style="font-size:130.74334717px;font-style:normal;font-variant:normal;font-weight:bold;font-stretch:normal;line-height:125%;letter-spacing:0px;word-spacing:0px;fill:#005b8c;fill-opacity:1;stroke:none;font-family:Trebuchet MS;-inkscape-font-specification:Trebuchet MS Bold"
         id="path4004"
         inkscape:connector-curvature="0" />
      <path
         d="m 366.34136,429.43332 5.74746,-12.55876 c 4.82181,3.7445 10.26789,5.61675 16.33826,5.61673 6.28557,2e-5 9.42836,-2.18778 9.4284,-6.56338 -4e-5,-2.56643 -0.94718,-4.67007 -2.84143,-6.31093 -1.89433,-1.64082 -5.57528,-3.57617 -11.04286,-5.80606 -11.92544,-4.83835 -17.88814,-11.6121 -17.88814,-20.32122 0,-5.84809 2.28175,-10.40247 6.84528,-13.66319 4.5635,-3.26059 10.39705,-4.8909 17.50067,-4.89097 7.18966,7e-5 13.94883,1.57779 20.27752,4.7332 l -4.64962,12.24322 c -3.53031,-2.94505 -8.43824,-4.4176 -14.72381,-4.41766 -5.63985,6e-5 -8.45975,2.18785 -8.45973,6.56337 -2e-5,1.72505 0.9256,3.28175 2.77686,4.6701 1.85121,1.38845 5.81199,3.25018 11.88237,5.58519 6.0703,2.33508 10.44009,5.16447 13.10935,8.4882 2.66918,3.3238 4.0038,7.34175 4.00385,12.05389 -5e-5,6.26889 -2.37868,11.20193 -7.13588,14.79915 -4.7573,3.59724 -11.22587,5.39586 -19.40572,5.39586 -4.6066,0 -8.29831,-0.36814 -11.07515,-1.10442 -2.77687,-0.73628 -6.33943,-2.24038 -10.68768,-4.51232 z"
         style="font-size:130.74334717px;font-style:normal;font-variant:normal;font-weight:bold;font-stretch:normal;line-height:125%;letter-spacing:0px;word-spacing:0px;fill:#005b8c;fill-opacity:1;stroke:none;font-family:Trebuchet MS;-inkscape-font-specification:Trebuchet MS Bold"
         id="path4006"
         inkscape:connector-curvature="0" />
      <path
         d="m 471.92658,433.78787 -20.34211,-30.60805 -7.74937,8.01489 0,22.59316 -16.14453,0 0,-92.77079 16.14453,-3.78656 0,54.90516 23.05439,-25.93796 19.43801,0 -23.37728,25.62242 28.15606,41.96773 z"
         style="font-size:130.74334717px;font-style:normal;font-variant:normal;font-weight:bold;font-stretch:normal;line-height:125%;letter-spacing:0px;word-spacing:0px;fill:#005b8c;fill-opacity:1;stroke:none;font-family:Trebuchet MS;-inkscape-font-specification:Trebuchet MS Bold"
         id="path4008"
         inkscape:connector-curvature="0" />
      <path
         d="m 538.76492,427.03517 c -1.46381,2.35609 -4.01465,4.28092 -7.6525,5.77451 -3.63794,1.49359 -7.43728,2.24038 -11.39804,2.24038 -7.44803,0 -13.3031,-1.81966 -17.56525,-5.45897 -4.26216,-3.63929 -6.39324,-8.80374 -6.39323,-15.49334 -10e-6,-7.82555 3.00287,-13.94714 9.00864,-18.36483 6.00575,-4.41762 14.54082,-6.62645 25.60522,-6.62649 1.89426,4e-5 4.13296,0.31559 6.71613,0.94664 -4e-5,-7.95173 -5.14476,-11.92762 -15.43417,-11.92767 -6.07036,5e-5 -11.15051,0.98877 -15.24043,2.96614 l -3.48722,-12.24322 c 5.5537,-2.60845 12.16218,-3.91271 19.82548,-3.91278 10.54772,7e-5 18.27556,2.34563 23.18354,7.03669 4.90788,4.69119 7.36184,13.57908 7.36191,26.66371 l 0,14.45206 c -7e-5,9.00361 1.85118,14.66241 5.55371,16.97642 -1.33467,2.27193 -2.81997,3.67086 -4.45588,4.19677 -1.63604,0.52591 -3.50881,0.78887 -5.6183,0.78887 -2.32487,0 -4.41289,-0.84146 -6.26408,-2.52438 -1.85129,-1.68292 -3.09979,-3.51308 -3.74553,-5.49051 z m -1.54988,-25.05443 c -2.75537,-0.54691 -4.82186,-0.82039 -6.19949,-0.82042 -12.74344,3e-5 -19.11514,4.0811 -19.11512,12.24322 -2e-5,6.05851 3.59482,9.08777 10.78454,9.08775 9.68668,2e-5 14.53003,-4.73318 14.53007,-14.19961 z"
         style="font-size:130.74334717px;font-style:normal;font-variant:normal;font-weight:bold;font-stretch:normal;line-height:125%;letter-spacing:0px;word-spacing:0px;fill:#005b8c;fill-opacity:1;stroke:none;font-family:Trebuchet MS;-inkscape-font-specification:Trebuchet MS Bold"
         id="path4010"
         inkscape:connector-curvature="0" />
      <path
         d="m 615.29,433.78787 0,-4.10211 c -1.33467,1.43048 -3.5949,2.68215 -6.7807,3.75501 -3.1859,1.07285 -6.47939,1.60929 -9.88046,1.60929 -9.64369,0 -17.23161,-2.98718 -22.76378,-8.96153 -5.5322,-5.97434 -8.2983,-14.30477 -8.29829,-24.99132 -10e-6,-10.68648 3.17509,-19.38505 9.52527,-26.09573 6.35016,-6.71056 14.30402,-10.06587 23.86161,-10.06594 5.25232,7e-5 10.03109,1.05189 14.33635,3.15546 l 0,-27.07392 16.14453,-3.78656 0,96.55735 z m 0,-51.43414 c -3.44422,-2.69262 -7.03907,-4.03895 -10.78454,-4.039 -6.45785,5e-5 -11.43036,1.92489 -14.91755,5.7745 -3.48724,3.84972 -5.23085,9.37178 -5.23083,16.56622 -2e-5,14.05237 6.93135,21.07854 20.79415,21.07853 1.54984,1e-5 3.45489,-0.45227 5.71517,-1.35685 2.26018,-0.90456 3.73471,-1.81964 4.4236,-2.74526 z"
         style="font-size:130.74334717px;font-style:normal;font-variant:normal;font-weight:bold;font-stretch:normal;line-height:125%;letter-spacing:0px;word-spacing:0px;fill:#005b8c;fill-opacity:1;stroke:none;font-family:Trebuchet MS;-inkscape-font-specification:Trebuchet MS Bold"
         id="path4012"
         inkscape:connector-curvature="0" />
      <path
         d="m 660.17177,340.00733 c 2.58311,9e-5 4.78952,0.89414 6.61926,2.68215 1.82968,1.78818 2.74454,3.94442 2.74457,6.46871 -3e-5,2.52446 -0.91489,4.68069 -2.74457,6.46871 -1.82974,1.78818 -4.03615,2.68222 -6.61926,2.68215 -2.58314,7e-5 -4.78956,-0.89397 -6.61925,-2.68215 -1.82973,-1.78802 -2.74458,-3.94425 -2.74457,-6.46871 -10e-6,-2.52429 0.91484,-4.68053 2.74457,-6.46871 1.82969,-1.78801 4.03611,-2.68206 6.61925,-2.68215 z m -8.33058,93.78054 0,-54.65273 -8.84719,0 0,-12.93742 25.18546,0 0,67.59015 z"
         style="font-size:130.74334717px;font-style:normal;font-variant:normal;font-weight:bold;font-stretch:normal;line-height:125%;letter-spacing:0px;word-spacing:0px;fill:#005b8c;fill-opacity:1;stroke:none;font-family:Trebuchet MS;-inkscape-font-specification:Trebuchet MS Bold"
         id="path4014"
         inkscape:connector-curvature="0" />
      <text
         transform="matrix(0.99473593,0.10247158,-0.10247158,0.99473593,0,0)"
         sodipodi:linespacing="125%"
         id="text3849"
         y="495.65222"
         x="101.2463"
         style="font-size:359.55349731px;font-style:normal;font-variant:normal;font-weight:bold;font-stretch:normal;line-height:125%;letter-spacing:0px;word-spacing:0px;fill:#005b8c;fill-opacity:1;stroke:none;font-family:Trebuchet MS;-inkscape-font-specification:Sans Bold"
         xml:space="preserve"><tspan
           style="font-style:normal;font-variant:normal;font-weight:bold;font-stretch:normal;fill:#005b8c;fill-opacity:1;font-family:Georgia;-inkscape-font-specification:Georgia Bold"
           y="495.65222"
           x="101.2463"
           id="tspan3851"
           sodipodi:role="line">e</tspan></text>
      <path
         d="m 331.94332,331.53157 c -6e-5,8.56246 -2.02251,14.84863 -6.06736,18.85853 -4.04494,4.00986 -10.26907,6.01481 -18.6724,6.01483 -2.79069,-2e-5 -5.5108,-0.18846 -8.16035,-0.56532 -2.64959,-0.37688 -5.25995,-0.91203 -7.83112,-1.60545 l 0,-8.68307 0.47034,0 c 1.44236,0.54269 3.73133,1.21351 6.86693,2.01249 3.13555,0.79895 6.27114,1.19843 9.40675,1.19844 3.01012,-1e-5 5.50291,-0.34674 7.47836,-1.04016 1.97538,-0.69345 3.51182,-1.65823 4.6093,-2.89435 1.09742,-1.17584 1.88132,-2.59287 2.3517,-4.25108 0.47029,-1.65823 0.70546,-3.51242 0.7055,-5.56259 l 0,-4.61287 c -2.66528,2.05016 -5.21295,3.58025 -7.64298,4.59026 -2.43012,1.01001 -5.5265,1.51501 -9.28917,1.51501 -6.27118,0 -11.24891,-2.17829 -14.93321,-6.5349 -3.68432,-4.3566 -5.52647,-10.49955 -5.52647,-18.4289 0,-4.3415 0.63495,-8.08757 1.90487,-11.23823 1.2699,-3.15059 3.00231,-5.87158 5.19723,-8.16298 2.03812,-2.14057 4.51522,-3.80633 7.43133,-4.99728 2.91607,-1.19086 5.81648,-1.78632 8.70124,-1.78637 3.04148,5e-5 5.58914,0.29401 7.64298,0.88187 2.05378,0.58798 4.22517,1.48492 6.51418,2.69085 l 0.5644,-2.17077 8.27795,0 z m -8.84235,-8.14037 0,-27.54159 c -2.35173,-1.02503 -4.53879,-1.75616 -6.56121,-2.19337 -2.02248,-0.43713 -4.0371,-0.65571 -6.04384,-0.65576 -4.86017,5e-5 -8.68558,1.56783 -11.47623,4.70333 -2.79069,3.13559 -4.18602,7.68816 -4.186,13.65773 -2e-5,5.66813 1.03473,9.96444 3.10423,12.88892 2.06946,2.92451 5.50292,4.38676 10.30039,4.38675 2.57114,1e-5 5.15016,-0.47484 7.73705,-1.42456 2.58682,-0.94969 4.96201,-2.22351 7.12561,-3.82145 z"
         style="font-size:94.45404053px;font-style:normal;font-variant:normal;font-weight:normal;font-stretch:normal;line-height:125%;letter-spacing:0px;word-spacing:0px;fill:#005b8c;fill-opacity:1;stroke:none;font-family:MS Reference Sans Serif;-inkscape-font-specification:MS Reference Sans Serif"
         id="path3994"
         inkscape:connector-curvature="0" />
      <path
         d="m 393.32236,312.89916 -38.70878,0 c -1e-5,3.10543 0.486,5.81135 1.45805,8.11777 0.97201,2.30645 2.30463,4.19833 3.99786,5.67565 1.63049,1.44718 3.56671,2.53256 5.80868,3.25614 2.2419,0.72359 4.71118,1.08539 7.40781,1.08538 3.57452,10e-6 7.1726,-0.68589 10.79424,-2.0577 3.62155,-1.37179 6.20056,-2.72098 7.73705,-4.04757 l 0.47034,0 0,9.27097 c -2.97886,1.20598 -6.02037,2.216 -9.12454,3.03003 -3.10427,0.81404 -6.36528,1.22105 -9.78302,1.22105 -8.71695,0 -15.52115,-2.26874 -20.41265,-6.80625 -4.89152,-4.5375 -7.33727,-10.98195 -7.33726,-19.33338 -10e-6,-8.26094 2.34384,-14.81845 7.03154,-19.67256 4.68768,-4.85401 10.85693,-7.28106 18.50778,-7.28111 7.08638,5e-5 12.55013,1.98993 16.39126,5.96961 3.84104,3.97977 5.76157,9.6328 5.76164,16.9591 z m -8.60718,-6.51229 c -0.0314,-4.46209 -1.1994,-7.91421 -3.50402,-10.35636 -2.30469,-2.44206 -5.8087,-3.66312 -10.51204,-3.66316 -4.73476,4e-5 -8.50529,1.3417 -11.31161,4.02495 -2.80636,2.68335 -4.39767,6.01487 -4.77393,9.99457 z"
         style="font-size:94.45404053px;font-style:normal;font-variant:normal;font-weight:normal;font-stretch:normal;line-height:125%;letter-spacing:0px;word-spacing:0px;fill:#005b8c;fill-opacity:1;stroke:none;font-family:MS Reference Sans Serif;-inkscape-font-specification:MS Reference Sans Serif"
         id="path3996"
         inkscape:connector-curvature="0" />
      <path
         d="m 451.50309,312.03991 c -5e-5,8.23083 -2.19496,14.72804 -6.58473,19.49166 -4.38986,4.76363 -10.26907,7.14543 -17.63765,7.14543 -7.43135,0 -13.33408,-2.3818 -17.7082,-7.14543 -4.37415,-4.76362 -6.56121,-11.26083 -6.56121,-19.49166 0,-8.23079 2.18706,-14.73554 6.56121,-19.51428 4.37412,-4.77865 10.27685,-7.168 17.7082,-7.16805 7.36858,5e-5 13.24779,2.3894 17.63765,7.16805 4.38977,4.77874 6.58468,11.28349 6.58473,19.51428 z m -9.12455,0 c -4e-5,-6.54241 -1.33266,-11.40402 -3.99787,-14.58483 -2.66528,-3.18073 -6.36526,-4.77112 -11.09996,-4.77117 -4.79747,5e-5 -8.52097,1.59044 -11.17051,4.77117 -2.64959,3.18081 -3.97437,8.04242 -3.97435,14.58483 -2e-5,6.33141 1.3326,11.13272 3.99787,14.40392 2.66522,3.27124 6.38088,4.90685 11.14699,4.90684 4.70334,1e-5 8.39549,-1.62053 11.07644,-4.8616 2.68089,-3.24107 4.02135,-8.05745 4.02139,-14.44916 z"
         style="font-size:94.45404053px;font-style:normal;font-variant:normal;font-weight:normal;font-stretch:normal;line-height:125%;letter-spacing:0px;word-spacing:0px;fill:#005b8c;fill-opacity:1;stroke:none;font-family:MS Reference Sans Serif;-inkscape-font-specification:MS Reference Sans Serif"
         id="path3998"
         inkscape:connector-curvature="0" />
      <text
         xml:space="preserve"
         style="font-size:359.55349731px;font-style:normal;font-variant:normal;font-weight:bold;font-stretch:normal;line-height:125%;letter-spacing:0px;word-spacing:0px;fill:#005b8c;fill-opacity:1;stroke:none;font-family:Trebuchet MS;-inkscape-font-specification:Sans Bold"
         x="101.2463"
         y="495.65222"
         id="text3918"
         sodipodi:linespacing="125%"
         transform="matrix(0.99473593,0.10247158,-0.10247158,0.99473593,0,0)"><tspan
           sodipodi:role="line"
           id="tspan3920"
           x="101.2463"
           y="495.65222"
           style="font-style:normal;font-variant:normal;font-weight:bold;font-stretch:normal;fill:#005b8c;fill-opacity:1;font-family:Georgia;-inkscape-font-specification:Georgia Bold">e</tspan></text>
    </g>
  </g>
</svg>
